<svg width="94" height="78" fill="none" xmlns="http://www.w3.org/2000/svg"><g clip-path="url(#a)"><path d="M93 63 80 50c3.374-4.542 6-9.884 6-16C86 19.05 73.785 7 59 7S32 19.05 32 34s12.232 27 27 27c5.812 0 11.602-1.799 16-5l12 13c.795.805 1.958 1 3 1s2.205-.195 3-1c1.608-1.61 1.59-4.39 0-6ZM40 34c0-10.408 8.72-19 19-19s19 8.592 19 19-8.72 19-19 19c-10.298 0-19-8.575-19-19Z" fill="url(#b)"/></g><g filter="url(#c)"><path d="M47.886 67.786C64.203 62.6 73.474 45.85 68.41 29.784 63.343 13.719 45.859 4.423 29.543 9.609 13.227 14.796 4.257 32.5 9.322 48.565 14.387 64.63 31.57 72.972 47.886 67.786Z" fill="url(#d)"/><path d="M67.652 30.024c4.925 15.62-4.078 31.942-20.004 37.005-15.927 5.062-32.645-3.085-37.57-18.704-4.934-15.652 3.81-32.906 19.704-37.959 15.894-5.052 32.935 4.007 37.87 19.658Z" stroke="url(#e)" stroke-opacity=".3" stroke-width="1.588"/></g><path stroke="url(#f)" stroke-width="3.529" stroke-linecap="round" d="M27.764 29.236h21.472"/><path stroke="url(#g)" stroke-width="3.529" stroke-linecap="round" d="M27.764 38.236h21.472"/><path stroke="url(#h)" stroke-width="3.529" stroke-linecap="round" d="M27.764 45.236h11.472"/><defs><linearGradient id="b" x1="63.099" y1="7" x2="63.099" y2="70" gradientUnits="userSpaceOnUse"><stop stop-color="#49FFF4"/><stop offset="1" stop-color="#D1FF5D"/></linearGradient><linearGradient id="d" x1="32.56" y1="30.907" x2="48.159" y2="62.212" gradientUnits="userSpaceOnUse"><stop stop-color="#fff" stop-opacity=".15"/><stop offset="1" stop-color="#fff" stop-opacity=".12"/></linearGradient><linearGradient id="e" x1="29.543" y1="9.609" x2="48.022" y2="67.743" gradientUnits="userSpaceOnUse"><stop/><stop offset="0" stop-color="#fff" stop-opacity=".984"/><stop offset="1" stop-color="#fff" stop-opacity=".32"/></linearGradient><linearGradient id="f" x1="23.214" y1="31" x2="54.431" y2="31" gradientUnits="userSpaceOnUse"><stop stop-color="#fff" stop-opacity=".99"/><stop offset="1" stop-color="#fff" stop-opacity="0"/></linearGradient><linearGradient id="g" x1="23.214" y1="40" x2="54.431" y2="40" gradientUnits="userSpaceOnUse"><stop stop-color="#fff" stop-opacity=".99"/><stop offset="1" stop-color="#fff" stop-opacity="0"/></linearGradient><linearGradient id="h" x1="24.329" y1="47" x2="43.059" y2="47" gradientUnits="userSpaceOnUse"><stop stop-color="#fff" stop-opacity=".99"/><stop offset="1" stop-color="#fff" stop-opacity="0"/></linearGradient><clipPath id="a"><path fill="#fff" transform="translate(32 7)" d="M0 0h62v63H0z"/></clipPath><filter id="c" x="-10.088" y="-9.828" width="97.879" height="97.146" filterUnits="userSpaceOnUse" color-interpolation-filters="sRGB"><feFlood flood-opacity="0" result="BackgroundImageFix"/><feGaussianBlur in="BackgroundImageFix" stdDeviation="8.998"/><feComposite in2="SourceAlpha" operator="in" result="effect1_backgroundBlur_93_6017"/><feBlend in="SourceGraphic" in2="effect1_backgroundBlur_93_6017" result="shape"/></filter></defs></svg>