<svg width="104" height="85" fill="none" xmlns="http://www.w3.org/2000/svg"><path d="M36 12C18.622 12 5 25.649 5 43c0 5.132.804 10.717 3 15L1 71c-1.242 2.311 1.498 4.748 4 4l15-5c4.817 2.991 9.907 5 16 5 17.378 0 32-13.649 32-31 0-17.368-14.622-32-32-32Z" fill="url(#a)"/><g filter="url(#b)"><path d="M71.582 74.605c17.634-5.597 27.088-23.809 21.517-41.451-5.571-17.643-24.057-28.036-41.692-22.44-17.635 5.597-27.74 25.065-22.169 42.708 5.571 17.643 24.71 26.78 42.344 21.183Z" fill="url(#c)"/><path d="M92.255 33.422c5.423 17.176-3.771 34.89-20.94 40.338-17.201 5.46-35.82-3.462-41.233-20.606-5.424-17.176 4.423-36.146 21.592-41.595C68.81 6.12 86.82 16.212 92.254 33.422Z" stroke="url(#d)" stroke-opacity=".4" stroke-width="1.771"/></g><circle cx="46" cy="43" fill="url(#e)" r="4"/><circle cx="61" cy="43" fill="url(#f)" r="4"/><circle cx="76" cy="43" fill="url(#g)" r="4"/><defs><linearGradient id="a" x1="8.641" y1="26.341" x2="53.274" y2="71.262" gradientUnits="userSpaceOnUse"><stop stop-color="#4EFFEF"/><stop offset="1" stop-color="#D1FF5D"/></linearGradient><linearGradient id="c" x1="54.313" y1="34.235" x2="71.513" y2="68.575" gradientUnits="userSpaceOnUse"><stop stop-color="#fff" stop-opacity=".15"/><stop offset="1" stop-color="#fff" stop-opacity=".12"/></linearGradient><linearGradient id="d" x1="50.93" y1="10.866" x2="71.199" y2="74.727" gradientUnits="userSpaceOnUse"><stop stop-color="#fff"/><stop offset="1" stop-color="#fff" stop-opacity="0"/></linearGradient><linearGradient id="e" x1="46" y1="39" x2="50" y2="49.268" gradientUnits="userSpaceOnUse"><stop stop-color="#fff" stop-opacity=".27"/><stop offset="1" stop-color="#fff" stop-opacity=".49"/></linearGradient><linearGradient id="f" x1="61" y1="39" x2="65" y2="49.268" gradientUnits="userSpaceOnUse"><stop stop-color="#fff" stop-opacity=".27"/><stop offset="1" stop-color="#fff" stop-opacity=".49"/></linearGradient><linearGradient id="g" x1="76" y1="39" x2="80" y2="49.268" gradientUnits="userSpaceOnUse"><stop stop-color="#fff" stop-opacity=".27"/><stop offset="1" stop-color="#fff" stop-opacity=".49"/></linearGradient><filter id="b" x="7.629" y="-10.88" width="107.14" height="107.2" filterUnits="userSpaceOnUse" color-interpolation-filters="sRGB"><feFlood flood-opacity="0" result="BackgroundImageFix"/><feGaussianBlur in="BackgroundImageFix" stdDeviation="10.037"/><feComposite in2="SourceAlpha" operator="in" result="effect1_backgroundBlur_93_5987"/><feBlend in="SourceGraphic" in2="effect1_backgroundBlur_93_5987" result="shape"/></filter></defs></svg>