<svg width="116" height="84" fill="none" xmlns="http://www.w3.org/2000/svg"><g clip-path="url(#a)"><path d="M115 20c-.095.134.114-.134 0 0L90 49c-2.719 3.096-6.893 5-11 5s-8.281-1.904-11-5L43 20c-.456 1.051-1 1.777-1 3v34c0 8.523 6.52 15 15 15h44c8.48 0 15-6.477 15-15V23c0-1.242-.544-1.93-1-3Z" fill="url(#b)"/><path d="M75 45c1.274 1.465 2.06 2 4 2 1.92 0 3.726-.535 5-2l26-29c.095-.096-.095-.923 0-1-.703-.193-1.22 0-2 0H51c-.76 0-1.297-.173-2 0l26 30Z" fill="url(#c)"/></g><g filter="url(#d)"><rect width="56" height="75" rx="16.468" transform="matrix(.20607 .97854 -.97985 .19975 79 7)" fill="url(#e)"/><rect x="-.717" y="1.091" width="54.147" height="73.147" rx="15.542" transform="matrix(.20607 .97854 -.97985 .19975 79.5 8.575)" stroke="url(#f)" stroke-opacity=".6" stroke-width="1.853"/></g><path transform="matrix(.97985 -.19975 .20607 .97854 34 38)" stroke="url(#g)" stroke-width="4.117" stroke-linecap="round" d="M2.059-2.059h31.882"/><path transform="matrix(.97985 -.19975 .20607 .97854 36 47)" stroke="url(#h)" stroke-width="4.117" stroke-linecap="round" d="M2.059-2.059h16.883"/><path transform="matrix(.97985 -.19975 .20607 .97854 38 56)" stroke="url(#i)" stroke-width="4.117" stroke-linecap="round" d="M2.059-2.059h31.882"/><defs><linearGradient id="b" x1="79" y1="19.961" x2="79" y2="72" gradientUnits="userSpaceOnUse"><stop stop-color="#4EFFEF"/><stop offset="1" stop-color="#D1FF5D"/></linearGradient><linearGradient id="c" x1="79.514" y1="14.915" x2="79.514" y2="47" gradientUnits="userSpaceOnUse"><stop stop-color="#4EFFEF"/><stop offset="1" stop-color="#D1FF5D"/></linearGradient><linearGradient id="e" x1="19.959" y1="5.209" x2="47.37" y2="68.062" gradientUnits="userSpaceOnUse"><stop stop-color="#fff" stop-opacity=".49"/><stop offset="1" stop-color="#fff" stop-opacity=".04"/></linearGradient><linearGradient id="f" x1="8.721" y1=".135" x2="17.14" y2="42.834" gradientUnits="userSpaceOnUse"><stop stop-color="#fff" stop-opacity=".44"/><stop offset="1" stop-color="#fff" stop-opacity="0"/></linearGradient><linearGradient id="g" x1="-4.011" y1="0" x2="40.941" y2="0" gradientUnits="userSpaceOnUse"><stop stop-color="#fff" stop-opacity=".72"/><stop offset="1" stop-color="#fff" stop-opacity="0"/></linearGradient><linearGradient id="h" x1="-2.34" y1="0" x2="23.882" y2="0" gradientUnits="userSpaceOnUse"><stop stop-color="#fff" stop-opacity=".72"/><stop offset="1" stop-color="#fff" stop-opacity="0"/></linearGradient><linearGradient id="i" x1="-4.011" y1="0" x2="57.902" y2="-.726" gradientUnits="userSpaceOnUse"><stop stop-color="#fff" stop-opacity=".31"/><stop offset="1" stop-color="#fff" stop-opacity="0"/></linearGradient><clipPath id="a"><path fill="#fff" transform="translate(42 15)" d="M0 0h74v57H0z"/></clipPath><filter id="d" x="-15.948" y="-14.542" width="127.947" height="112.864" filterUnits="userSpaceOnUse" color-interpolation-filters="sRGB"><feFlood flood-opacity="0" result="BackgroundImageFix"/><feGaussianBlur in="BackgroundImageFix" stdDeviation="12.248"/><feComposite in2="SourceAlpha" operator="in" result="effect1_backgroundBlur_93_5998"/><feBlend in="SourceGraphic" in2="effect1_backgroundBlur_93_5998" result="shape"/></filter></defs></svg>