<svg xmlns="http://www.w3.org/2000/svg" width="58" height="58" fill="none"><g clip-path="url(#a)"><path fill="url(#b)" d="M15 58c-2.238-.025-4.902-.222-7-1-1.532-.566-2.861-1.829-4-3-1.174-1.136-2.435-2.466-3-4-.777-2.098-.976-4.762-1-7-.172-3.719 0-4.575 0-14 0-9.424-.167-10.277 0-14 .027-2.236.225-4.902 1-7 .567-1.532 1.83-2.86 3-4 1.137-1.173 2.466-2.435 4-3 2.098-.777 4.762-.975 7-1 3.72-.17 4.58 0 14 0 9.419 0 10.278-.166 14 0 2.237.028 4.902.225 7 1 1.533.565 2.862 1.828 4 3 1.172 1.139 2.434 2.467 3 4 .778 2.098.975 4.763 1 7 .17 3.723 0 4.58 0 14 0 9.422.17 10.278 0 14-.027 2.238-.224 4.902-1 7-.587 1.522-1.847 2.847-3 4-1.154 1.154-2.478 2.414-4 3-2.098.778-4.763.975-7 1-3.719.17-4.579 0-14 0s-10.281.172-14 0Z"/><path fill="url(#c)" d="M15 58c-2.238-.025-4.902-.222-7-1-1.532-.566-2.861-1.829-4-3-1.174-1.136-2.435-2.466-3-4-.777-2.098-.976-4.762-1-7-.172-3.719 0-4.575 0-14 0-9.424-.167-10.277 0-14 .027-2.236.225-4.902 1-7 .567-1.532 1.83-2.86 3-4 1.137-1.173 2.466-2.435 4-3 2.098-.777 4.762-.975 7-1 3.72-.17 4.58 0 14 0 9.419 0 10.278-.166 14 0 2.237.028 4.902.225 7 1 1.533.565 2.862 1.828 4 3 1.172 1.139 2.434 2.467 3 4 .778 2.098.975 4.763 1 7 .17 3.723 0 4.58 0 14 0 9.422.17 10.278 0 14-.027 2.238-.224 4.902-1 7-.587 1.522-1.847 2.847-3 4-1.154 1.154-2.478 2.414-4 3-2.098.778-4.763.975-7 1-3.719.17-4.579 0-14 0s-10.281.172-14 0Z"/><path fill="#fff" d="M22 29c0-1.414 1.214-1.824 2-3s1.693-2.459 3-3c1.307-.541 2.613-1.276 4-1s3 1 4 2 1.724 2.613 2 4-.459 2.693-1 4c-.541 1.306-1.824 2.214-3 3-1.176.785-2.586 2-4 2-1.896 0-3.66-.659-5-2-1.34-1.341-2-4.104-2-6Zm-4 0c0 2.179.79 5.188 2 7 1.21 1.811 2.987 3.166 5 4 2.013.834 4.863.425 7 0 2.137-.425 3.46-1.46 5-3s2.575-2.863 3-5c.425-2.137.834-4.987 0-7s-2.188-3.79-4-5c-1.812-1.21-4.821-2-7-2-1.447 0-2.663.446-4 1-1.337.553-1.977 1.977-3 3s-2.447 1.663-3 3c-.554 1.336-1 2.553-1 4Zm20-11c0 .509.717.576 1 1 .283.423.53.805 1 1 .47.195.5 1.099 1 1 .5-.1 1.64-.64 2-1 .36-.36.9-.5 1-1 .1-.5-.805-1.53-1-2-.195-.47-.577-.717-1-1-.423-.283-.49-1-1-1-.682 0-1.517.518-2 1-.483.482-1 1.317-1 2ZM21 47c-1.36-.015-2.724-.528-4-1-.925-.357-2.299-.299-3-1-.701-.701-.643-2.075-1-3-.472-1.276-.985-2.64-1-4-.104-2.261 0-2.272 0-8 0-5.729-.102-6.737 0-9 .016-1.36.53-2.724 1-4 .357-.926.299-2.299 1-3 .701-.701 2.074-.643 3-1 1.276-.472 2.64-.985 4-1 2.261-.104 3.273 0 9 0s5.736-.103 8 0c1.36.016 2.724.53 4 1 .925.357 2.298.299 3 1 .701.701.643 2.074 1 3 .472 1.276.985 2.64 1 4 .104 2.264 0 3.27 0 9s.103 5.737 0 8c-.016 1.36-.529 2.724-1 4-.357.925-.299 2.299-1 3-.701.701-2.075.643-3 1-1.276.472-2.64.985-4 1-2.261.104-2.27 0-8 0s-6.74.103-9 0Zm0-39c-1.78.035-4.333.375-6 1-1.425.551-1.92 1.92-3 3s-2.449 1.575-3 3c-.624 1.667-.965 4.22-1 6-.106 2.287 0 2.174 0 8 0 5.826-.105 6.712 0 9 .035 1.78.376 4.333 1 6 .551 1.425 1.92 1.92 3 3s1.575 2.449 3 3c1.667.624 4.22.965 6 1 2.288.104 3.174 0 9 0 5.826 0 5.712.105 8 0 1.78-.035 4.333-.376 6-1 1.425-.551 1.92-1.92 3-3s2.449-1.575 3-3c.625-1.667.966-4.22 1-6 .104-2.289 0-3.174 0-9 0-5.826.103-5.712 0-8-.035-1.78-.376-4.333-1-6-.551-1.425-1.92-1.92-3-3s-1.575-2.449-3-3c-1.667-.625-4.22-.965-6-1-2.288-.105-2.175 0-8 0s-6.711-.105-9 0Z"/></g><defs><radialGradient id="b" cx="0" cy="0" r="1" gradientTransform="translate(3.687 56.803) scale(73.83)" gradientUnits="userSpaceOnUse"><stop offset=".09" stop-color="#FA8F21"/><stop offset=".78" stop-color="#D82D7E"/></radialGradient><radialGradient id="c" cx="0" cy="0" r="1" gradientTransform="translate(40.203 54.935) scale(64.97)" gradientUnits="userSpaceOnUse"><stop offset=".64" stop-color="#8C3AAA" stop-opacity="0"/><stop offset="1" stop-color="#8C3AAA"/></radialGradient><clipPath id="a"><path fill="#fff" d="M0 0h58v58H0z"/></clipPath></defs></svg>