<svg xmlns="http://www.w3.org/2000/svg" width="58" height="58" fill="none"><g clip-path="url(#a)"><path fill="#0B86CA" d="M45 0H13C5.81 0 0 5.81 0 13v32c0 7.19 5.81 13 13 13h32c7.19 0 13-5.81 13-13V13c0-7.19-5.81-13-13-13Z"/><path fill="#fff" d="M16 24h6v19h-6V24Zm4-10c.67 0 .443.62 1 1 .557.38 1.743.367 2 1 .257.634.13 1.327 0 2s-.528 1.514-1 2-1.344.864-2 1c-.656.136-1.38.26-2 0-.62-.26-.625-1.431-1-2s-.996-.314-1-1c-.002-.458-.17-1.576 0-2 .17-.424.685-.675 1-1 .315-.325.588-.824 1-1 .412-.176 1.553 0 2 0ZM26 24h6v3c.587-.993.981-1.448 2-2 1.019-.553 2.84-1.045 4-1 6.09 0 7 3.75 7 9v11h-6v-9c0-2.253.167-6-3-6s-4 2.466-4 5v10h-6V24Z"/></g><defs><clipPath id="a"><path fill="#fff" d="M0 0h58v58H0z"/></clipPath></defs></svg>