<?xml version="1.0" encoding="utf-8"?>
<!-- Generator: Adobe Illustrator 18.0.0, SVG Export Plug-In . SVG Version: 6.00 Build 0)  -->
<!DOCTYPE svg PUBLIC "-//W3C//DTD SVG 1.1//EN" "http://www.w3.org/Graphics/SVG/1.1/DTD/svg11.dtd" [
	<!ENTITY ns_extend "http://ns.adobe.com/Extensibility/1.0/">
	<!ENTITY ns_ai "http://ns.adobe.com/AdobeIllustrator/10.0/">
	<!ENTITY ns_graphs "http://ns.adobe.com/Graphs/1.0/">
	<!ENTITY ns_vars "http://ns.adobe.com/Variables/1.0/">
	<!ENTITY ns_imrep "http://ns.adobe.com/ImageReplacement/1.0/">
	<!ENTITY ns_sfw "http://ns.adobe.com/SaveForWeb/1.0/">
	<!ENTITY ns_custom "http://ns.adobe.com/GenericCustomNamespace/1.0/">
	<!ENTITY ns_adobe_xpath "http://ns.adobe.com/XPath/1.0/">
]>
<svg version="1.1" id="Layer_1" xmlns:x="&ns_extend;" xmlns:i="&ns_ai;" xmlns:graph="&ns_graphs;"
	 xmlns="http://www.w3.org/2000/svg" xmlns:xlink="http://www.w3.org/1999/xlink" x="0px" y="0px" width="100px" height="27px"
	 viewBox="0 0 100 27" enable-background="new 0 0 100 27" xml:space="preserve">
<metadata>
	<sfw  xmlns="&ns_sfw;">
		<slices></slices>
		<sliceSourceBounds  width="95.1168671" height="22.2753124" bottomLeftOrigin="true" x="2.6513169" y="-25.0922928">
			</sliceSourceBounds>
	</sfw>
</metadata>
<g>
	<g>
		<path fill="#000003" d="M37.6441879,23.8358688c0-0.389925,0.0691109-0.7024841,0.2073402-0.9376774
			c0.1382256-0.2341614,0.3842506-0.4270592,0.7385864-0.5756035l0.7504501-0.3239059l0.1325531,0.332159l-0.8046036,0.3352528
			c-0.2099228,0.0969658-0.3667183,0.2114677-0.4703865,0.342474c-0.103672,0.1310062-0.162468,0.2960529-0.1763954,0.495142
			h0.0082512c0.1660805-0.2486019,0.4131355-0.3723888,0.7421989-0.3723888c0.265625,0,0.4807014,0.0876827,0.6452332,0.2630444
			c0.1645317,0.1753635,0.2465401,0.4095249,0.2465401,0.7024841s-0.0912933,0.5322781-0.2733612,0.7179565
			c-0.1825829,0.1846466-0.4219017,0.2774868-0.7179565,0.2774868c-0.3398933,0-0.5962334-0.1134701-0.7690163-0.3414421
			C37.730835,24.5218468,37.6441879,24.2175407,37.6441879,23.8358688z M38.0629959,24.0968494
			c0,0.2021828,0.0567322,0.3620739,0.1702042,0.4796696c0.1134682,0.1175957,0.2542763,0.1763954,0.4229355,0.1763954
			c0.1717491,0,0.314621-0.0587997,0.4291229-0.1763954c0.1150169-0.1175957,0.1722679-0.2743912,0.1722679-0.4714165
			c0-0.1990891-0.056736-0.3579464-0.1696892-0.4765759c-0.113472-0.1186275-0.2516975-0.1784573-0.4151993-0.1784573
			c-0.1769104,0-0.3228722,0.0618935-0.4373741,0.1846466C38.1207619,23.7574711,38.0629959,23.9122028,38.0629959,24.0968494z"/>
		<path fill="#000003" d="M40.0100403,23.9895687c0-0.3125591,0.1088257-0.5735397,0.3275146-0.7819118
			c0.218174-0.208374,0.4853439-0.313591,0.8004799-0.313591c0.3177185,0,0.5859184,0.104187,0.8046074,0.3115273
			c0.218174,0.2073402,0.3275185,0.4683228,0.3275185,0.7839756c0,0.3146229-0.1093445,0.5776672-0.3275185,0.7881031
			c-0.218689,0.209404-0.4853439,0.314621-0.8004799,0.314621s-0.5828247-0.105217-0.8025436-0.314621
			C40.1198997,24.5672359,40.0100403,24.3041916,40.0100403,23.9895687z M40.4205971,23.9895687
			c0,0.218689,0.0696259,0.3981781,0.209404,0.5405312c0.1397743,0.1433849,0.3104935,0.2145615,0.5121613,0.2145615
			c0.1990891,0,0.3692932-0.0722084,0.5101013-0.2166252c0.1408043-0.1433849,0.2114677-0.3228741,0.2114677-0.5384674
			s-0.0706635-0.3940506-0.2114677-0.5353737c-0.1408081-0.1413212-0.3110123-0.2114658-0.5101013-0.2114658
			c-0.2016678,0-0.3723869,0.0701447-0.5121613,0.2114658C40.4902229,23.5955181,40.4205971,23.7739754,40.4205971,23.9895687z"/>
		<path fill="#000003" d="M42.4506798,25.0634098v-0.361042c0.1573105-0.0247574,0.2759399-0.123785,0.3543358-0.2960529
			c0.0789146-0.1733017,0.1186295-0.4445972,0.1186295-0.8149223v-0.64678h1.4054832v2.0981655h-0.4023056v-1.7670403h-0.617897
			v0.3156548c0,0.4837952-0.0670471,0.8458672-0.201149,1.0862179S42.7544708,25.0469055,42.4506798,25.0634098z"/>
		<path fill="#000003" d="M44.9325829,25.042778v-2.0981655h0.4023018v0.7581863h0.4229355
			c0.2326126,0,0.417778,0.056736,0.5560036,0.1681423c0.1382294,0.1124382,0.2073402,0.2816124,0.2073402,0.5085526
			c0,0.2042465-0.0644722,0.3661995-0.1928978,0.484827c-0.1284294,0.1186275-0.3213272,0.1784573-0.5786972,0.1784573H44.9325829z
			 M45.3348846,24.7529144h0.361042c0.1382294,0,0.2418976-0.0340424,0.3110123-0.1021233
			c0.0691147-0.0680828,0.103672-0.1598911,0.103672-0.275423c0-0.1196594-0.0340424-0.2124996-0.1016083-0.2805805
			c-0.0680847-0.0670509-0.1722679-0.1010933-0.313076-0.1010933h-0.361042V24.7529144z"/>
		<path fill="#000003" d="M46.9332695,25.042778v-2.0981655h0.3857956v1.7495022h0.7757263v-1.7495022h0.3888931v1.7495022
			h0.7757225v-1.7495022h0.3857994v2.0981655H46.9332695z"/>
		<path fill="#000003" d="M50.1114655,23.9936943c0-0.3290634,0.0990295-0.5941696,0.2981148-0.7963543
			c0.1990891-0.2021828,0.4507866-0.3032742,0.7550926-0.3032742c0.2847099,0,0.5075226,0.0938702,0.6674118,0.2805805
			c0.160923,0.1867104,0.2413826,0.4208717,0.2413826,0.7024841c0,0.0361042-0.0061874,0.0928383-0.0165062,0.1702042h-1.5266876
			c0.0113449,0.218689,0.0845871,0.388895,0.2217827,0.5126801c0.1371956,0.1227531,0.3032761,0.1846466,0.5003014,0.1846466
			c0.2290001,0,0.4353104-0.0825233,0.6178932-0.2455082l0.1691742,0.295023
			c-0.0990257,0.0907764-0.2228127,0.1640148-0.3703232,0.2176552c-0.1485443,0.0536404-0.2960548,0.0804615-0.4425354,0.0804615
			c-0.3259697,0-0.5931396-0.104187-0.8025436-0.3125591C50.2156525,24.5703297,50.1114655,24.3083172,50.1114655,23.9936943z
			 M50.5426521,23.7574711h1.1243858c-0.0061913-0.1743317-0.056736-0.3104954-0.151638-0.4064293
			c-0.095932-0.0969658-0.2155914-0.1454487-0.3589783-0.1454487c-0.1578255,0-0.2919273,0.0495148-0.4043655,0.1475105
			C50.6396179,23.4511013,50.5705032,23.5852032,50.5426521,23.7574711z"/>
		<path fill="#000003" d="M53.5774612,25.042778v-2.0981655h0.8665009c0.2155952,0,0.3857994,0.0464191,0.5116463,0.1382256
			c0.1258507,0.0928402,0.1887741,0.2259102,0.1887741,0.4002419c0,0.1021233-0.0257874,0.1949615-0.0783958,0.2764549
			c-0.0526085,0.0814915-0.1258507,0.1423531-0.2197189,0.1846466v0.0041256
			c0.1268768,0.0299149,0.2248764,0.0907764,0.2939911,0.1815529c0.0691109,0.0918064,0.1041832,0.1970253,0.1041832,0.3156528
			c0,0.190836-0.0701447,0.3383465-0.209404,0.4415016c-0.1402893,0.104187-0.3269997,0.1557636-0.562191,0.1557636H53.5774612z
			 M53.9797668,23.8317413h0.3930206c0.1196594,0,0.209404-0.0278511,0.2702637-0.0845852
			c0.0608597-0.056736,0.0907745-0.1351337,0.0907745-0.2351933c0-0.1928997-0.1237831-0.2898655-0.3734169-0.2898655h-0.3806419
			V23.8317413z M53.9797668,24.7611656h0.4311867c0.1402893,0,0.24757-0.0299149,0.3187485-0.0876808
			c0.0722084-0.057766,0.1083107-0.1382275,0.1083107-0.2403507c0-0.105217-0.0371361-0.1867104-0.1124382-0.2444763
			c-0.0742722-0.0587978-0.1805191-0.0876808-0.3187485-0.0876808h-0.4270592V24.7611656z"/>
		<path fill="#000003" d="M55.5776329,23.9895687c0-0.3125591,0.1093445-0.5735397,0.3269997-0.7819118
			c0.218689-0.208374,0.4858589-0.313591,0.8004799-0.313591c0.3187485,0,0.5869522,0.104187,0.8046074,0.3115273
			c0.218689,0.2073402,0.3280334,0.4683228,0.3280334,0.7839756c0,0.3146229-0.1093445,0.5776672-0.3280334,0.7881031
			c-0.2176552,0.209404-0.4848251,0.314621-0.8004799,0.314621c-0.314621,0-0.5817909-0.105217-0.8025436-0.314621
			C55.6869774,24.5672359,55.5776329,24.3041916,55.5776329,23.9895687z M55.9881897,23.9895687
			c0,0.218689,0.0701447,0.3981781,0.209404,0.5405312c0.1392593,0.1433849,0.3104935,0.2145615,0.5116463,0.2145615
			c0.1990891,0,0.3692932-0.0722084,0.5106163-0.2166252c0.1413231-0.1433849,0.2114677-0.3228741,0.2114677-0.5384674
			s-0.0701447-0.3940506-0.2114677-0.5353737c-0.1413231-0.1413212-0.3115273-0.2114658-0.5106163-0.2114658
			c-0.2011528,0-0.3723869,0.0701447-0.5116463,0.2114658C56.0583344,23.5955181,55.9881897,23.7739754,55.9881897,23.9895687z"/>
		<path fill="#000003" d="M58.0512848,24.785923l0.1856766-0.2661381c0.1578255,0.1660786,0.3404121,0.2496338,0.5477524,0.2496338
			c0.1268806,0,0.2320976-0.0299149,0.313591-0.0897446c0.0814896-0.0587978,0.1217194-0.1444168,0.1217194-0.2547932
			c0-0.2124977-0.143383-0.3197784-0.4311867-0.3197784h-0.256855V23.815237h0.2197227
			c0.2651062,0,0.3981743-0.1010914,0.3981743-0.3032742c0-0.0959339-0.0330086-0.1712379-0.1000595-0.2238464
			c-0.0660172-0.0526085-0.1567955-0.0783978-0.2733612-0.0783978c-0.1763916,0-0.3465996,0.0608616-0.5095825,0.1825848
			l-0.1495743-0.2702656c0.2042465-0.151638,0.4476929-0.227972,0.7293053-0.227972
			c0.2083702,0,0.3775444,0.0505466,0.5106163,0.1495743c0.1330681,0.1000595,0.1990852,0.2393188,0.1990852,0.418808
			c0,0.2320976-0.1021233,0.3909569-0.3073997,0.4776058v0.0082531c0.2516975,0.0794296,0.3775482,0.2444763,0.3775482,0.4930801
			c0,0.2073402-0.0763359,0.3682613-0.2300377,0.4806995c-0.153698,0.1134701-0.3445358,0.1702061-0.5745697,0.1702061
			C58.5237312,25.0922928,58.2668762,24.9901695,58.0512848,24.785923z"/>
		<path fill="#000003" d="M60.0060654,25.042778l0.1825829-2.0981655h0.4476929l0.5353737,1.1852474l0.1155319,0.2826424h0.009285
			c0.0412598-0.1021214,0.0794258-0.1959934,0.1155319-0.2826424l0.5477524-1.1852474h0.4394379l0.1825829,2.0981655h-0.3899231
			l-0.0907784-1.2481709l0.0041275-0.361042h-0.009285c-0.0350723,0.0969658-0.0794258,0.1990891-0.1320381,0.3074017
			l-0.4982376,1.0490818H61.1222l-0.4982376-1.0449562l-0.1320381-0.3115273h-0.009285l0.0041275,0.361042l-0.0907784,1.2481709
			H60.0060654z"/>
		<path fill="#000003" d="M62.9655724,23.9895687c0-0.3125591,0.1093445-0.5735397,0.3269997-0.7819118
			c0.218689-0.208374,0.4858589-0.313591,0.8004837-0.313591c0.3187485,0,0.5869522,0.104187,0.8046036,0.3115273
			c0.218689,0.2073402,0.3280334,0.4683228,0.3280334,0.7839756c0,0.3146229-0.1093445,0.5776672-0.3280334,0.7881031
			c-0.2176514,0.209404-0.4848251,0.314621-0.8004761,0.314621c-0.3146248,0-0.5817947-0.105217-0.8025475-0.314621
			C63.0749168,24.5672359,62.9655724,24.3041916,62.9655724,23.9895687z M63.3761292,23.9895687
			c0,0.218689,0.0701447,0.3981781,0.209404,0.5405312c0.1392593,0.1433849,0.3104973,0.2145615,0.5116501,0.2145615
			c0.1990891,0,0.3692932-0.0722084,0.5106125-0.2166252c0.1413193-0.1433849,0.2114716-0.3228741,0.2114716-0.5384674
			s-0.0701523-0.3940506-0.2114716-0.5353737c-0.1413193-0.1413212-0.3115234-0.2114658-0.5106125-0.2114658
			c-0.2011528,0-0.3723907,0.0701447-0.5116501,0.2114658C63.4462738,23.5955181,63.3761292,23.7739754,63.3761292,23.9895687z"/>
		<path fill="#000003" d="M65.384552,25.042778l0.6766968-1.0779667v-0.0082512l-0.617897-1.0119476h0.4270554l0.51371,0.8582458
			h0.2991486v-0.8582458h0.3816757v0.8582458H67.36306l0.5188675-0.8582458h0.4229355l-0.6137695,1.0119476v0.0082512
			l0.6756592,1.0779667h-0.4518127l-0.5477524-0.8953819h-0.3022461v0.8953819h-0.3816757v-0.8953819h-0.2991486
			l-0.5508423,0.8953819H65.384552z"/>
		<path fill="#000003" d="M68.7257309,25.042778v-2.0981655h0.4023056v0.8541203h1.0614624v-0.8541203h0.4023056v2.0981655
			h-0.4023056v-0.8995094h-1.0614624v0.8995094H68.7257309z"/>
		<path fill="#000003" d="M71.0580597,23.9895687c0-0.3125591,0.1093445-0.5735397,0.3270035-0.7819118
			c0.218689-0.208374,0.4858551-0.313591,0.8004761-0.313591c0.3187485,0,0.5869522,0.104187,0.8046112,0.3115273
			c0.218689,0.2073402,0.3280334,0.4683228,0.3280334,0.7839756c0,0.3146229-0.1093445,0.5776672-0.3280334,0.7881031
			c-0.217659,0.209404-0.4848328,0.314621-0.8004837,0.314621c-0.314621,0-0.5817947-0.105217-0.8025436-0.314621
			C71.1674042,24.5672359,71.0580597,24.3041916,71.0580597,23.9895687z M71.4686127,23.9895687
			c0,0.218689,0.0701523,0.3981781,0.2094116,0.5405312c0.1392517,0.1433849,0.3104935,0.2145615,0.5116425,0.2145615
			c0.1990891,0,0.3692932-0.0722084,0.5106201-0.2166252c0.1413193-0.1433849,0.2114639-0.3228741,0.2114639-0.5384674
			s-0.0701447-0.3940506-0.2114639-0.5353737c-0.1413269-0.1413212-0.3115311-0.2114658-0.5106201-0.2114658
			c-0.201149,0-0.3723907,0.0701447-0.5116425,0.2114658C71.538765,23.5955181,71.4686127,23.7739754,71.4686127,23.9895687z"/>
		<path fill="#000003" d="M73.6472473,23.9936943c0-0.3125572,0.105217-0.5735397,0.3166809-0.7839756
			c0.2114716-0.2104359,0.4807053-0.3156528,0.8066711-0.3156528c0.3321609,0,0.5951996,0.1031551,0.7881012,0.3074017
			l-0.190834,0.2816124c-0.1598892-0.1598911-0.3538208-0.2403507-0.5797348-0.2403507
			c-0.210434,0-0.3847656,0.0711765-0.5229874,0.2135296c-0.1382294,0.1423531-0.2073441,0.3197803-0.2073441,0.5333099
			c0,0.2155933,0.0701447,0.3950825,0.209404,0.5384674c0.1392593,0.1444168,0.3177185,0.2166252,0.5333099,0.2166252
			c0.1155319,0,0.2320938-0.0257893,0.3496933-0.0773659c0.1175995-0.0505466,0.216629-0.1196594,0.2970886-0.2052784
			l0.1619492,0.295023c-0.096962,0.1021233-0.2197189,0.1836147-0.3692932,0.2444763s-0.305336,0.0907764-0.4693527,0.0907764
			c-0.3290634,0-0.5982971-0.1031551-0.8087311-0.3104954C73.7524643,24.5744553,73.6472473,24.3114109,73.6472473,23.9936943z"/>
		<path fill="#000003" d="M76.5314484,25.042778v-1.7546616h-0.7303314v-0.343504h1.8629684v0.343504h-0.7344589v1.7546616
			H76.5314484z"/>
		<path fill="#000003" d="M77.8311996,23.9936943c0-0.3290634,0.0990295-0.5941696,0.2981186-0.7963543
			c0.1990891-0.2021828,0.4507828-0.3032742,0.7550888-0.3032742c0.2847061,0,0.5075226,0.0938702,0.6674118,0.2805805
			c0.1609192,0.1867104,0.2413864,0.4208717,0.2413864,0.7024841c0,0.0361042-0.0061951,0.0928383-0.01651,0.1702042h-1.5266876
			c0.0113449,0.218689,0.0845871,0.388895,0.2217789,0.5126801c0.1371994,0.1227531,0.3032761,0.1846466,0.5003052,0.1846466
			c0.2290039,0,0.4353104-0.0825233,0.617897-0.2455082l0.1691742,0.295023
			c-0.0990295,0.0907764-0.2228165,0.1640148-0.3703308,0.2176552c-0.1485367,0.0536404-0.296051,0.0804615-0.4425278,0.0804615
			c-0.3259735,0-0.5931396-0.104187-0.8025436-0.3125591C77.9353867,24.5703297,77.8311996,24.3083172,77.8311996,23.9936943z
			 M78.2623825,23.7574711h1.1243896c-0.0061874-0.1743317-0.0567322-0.3104954-0.1516342-0.4064293
			c-0.0959396-0.0969658-0.2155991-0.1454487-0.3589783-0.1454487c-0.1578293,0-0.2919312,0.0495148-0.4043732,0.1475105
			C78.3593521,23.4511013,78.2902374,23.5852032,78.2623825,23.7574711z"/>
		<path fill="#000003" d="M80.2604904,25.042778v-2.0981655h0.3847656v1.2522964
			c0,0.1464806-0.0041199,0.2403507-0.0123749,0.2816124h0.008255c0.0144424-0.0330086,0.0763321-0.1268787,0.1867065-0.2816124
			l0.9046707-1.2522964h0.3899231v2.0981655h-0.3899231v-1.2522984c0-0.0391979,0.0020599-0.0938702,0.0061874-0.1640148
			c0.0041275-0.0701466,0.0061874-0.1083126,0.0061874-0.114502h-0.008255
			c-0.0030899,0.0061893-0.0639496,0.0990276-0.182579,0.2785168L80.645256,25.042778H80.2604904z M81.184761,22.7032299
			c-0.1681442,0-0.312561-0.047451-0.4332504-0.1423531c-0.1206894-0.0959339-0.1805191-0.2248783-0.1805191-0.3878632v-0.0629234
			h0.3239059v0.0587978c0,0.085619,0.0288773,0.1526699,0.086647,0.2011509
			c0.0577698,0.0484829,0.1258469,0.0722084,0.2032166,0.0722084c0.0804596,0,0.1495743-0.0237255,0.2073364-0.0722084
			c0.0577698-0.048481,0.0876846-0.1165638,0.0876846-0.2052765v-0.0546722h0.3187485v0.0629234
			c0,0.1629848-0.0587997,0.2919292-0.1784592,0.3878632C81.501442,22.6557789,81.3559952,22.7032299,81.184761,22.7032299z"/>
		<path fill="#000003" d="M82.7950058,24.2381725l-0.0247574-2.1239567h0.4146805l-0.0288849,2.1239567H82.7950058z
			 M82.7702484,25.042778v-0.4105549h0.4146805v0.4105549H82.7702484z"/>
	</g>
	<g>
		<path fill-rule="evenodd" clip-rule="evenodd" fill="#00498A" d="M25.1544685,17.3064156h2.2174339V14.089263h1.840498
			c2.3478508,0,4.2464008-1.2466841,4.2464008-3.6813316v-0.0291929c0-2.1303024-1.5216141-3.6229458-4.0288525-3.6229458
			h-4.2754803V17.3064156L25.1544685,17.3064156z M44.5563698,17.3064156h2.2175484l-0.0291939-4.3477364h0.4612694
			l4.3478508,4.3477364h2.9954643l-5.2536125-5.2536125l5.2536125-5.2539482h-2.9954643l-4.2178802,4.2177668h-0.5912399
			l0.0291939-4.260829h-2.2175484V17.3064156L44.5563698,17.3064156z M39.2538795,17.4804554
			c2.0146484,0,3.2463455-0.7247906,4.3189926-1.8696918l-1.4203911-1.4345922
			c-0.8405533,0.7678528-1.5942039,1.2608891-2.8262329,1.2608891c-1.8548164,0-3.1445618-1.5506935-3.1445618-3.4061794v-0.0288582
			c0-1.8550386,1.3186035-3.3766508,3.1445618-3.3766508c1.1013908,0,1.9276276,0.4636202,2.753643,1.217268l1.4203873-1.6376019
			c-1.0000534-0.9565444-2.1594925-1.6233964-4.1594925-1.6233964c-3.2316933,0-5.4926338,2.4349828-5.4926338,5.4492393v0.0291929
			C33.8481522,15.0889816,36.1524925,17.4804554,39.2538795,17.4804554L39.2538795,17.4804554z M27.3719025,12.1034718V8.7703295
			h1.8696899c1.2171555,0,1.9708042,0.5649567,1.9708042,1.6521425v0.0288572c0,0.9420042-0.7101383,1.6521425-1.9274063,1.6521425
			H27.3719025z"/>
		<path fill-rule="evenodd" clip-rule="evenodd" fill="#00498A" d="M57.0324974,17.3064156h4.7828369
			c2.5072365,0,3.9127464-1.2463493,3.9127464-3.2897434v-0.0146523c0-2.043395-1.4055099-3.1160402-3.82584-3.1160402h-2.710247
			V8.7269316h5.2330322l0.8367538-1.971139h-8.2292824V17.3064156L57.0324974,17.3064156z M87.77491,17.3064156h2.2175446
			l-0.0291901-4.3477364h0.4612732l4.347847,4.3477364h2.995575l-5.2536087-5.2536125l5.25383-5.2539482h-2.9957962
			l-4.2175446,4.2177668h-0.5915756l0.0291901-4.260829H87.77491V17.3064156L87.77491,17.3064156z M77.2803268,17.3064156h2.2175446
			v-4.2754803h4.4346466v4.2754803h2.2320862V6.7557926H83.932518v4.2174311h-4.4346466V6.7557926h-2.2175446V17.3064156
			L77.2803268,17.3064156z M65.4593048,17.3064156l4.5506363-10.6229897h2.0580444l4.5364304,10.6229897h-2.3335342
			l-0.985405-2.4057894H68.720192l-0.985405,2.4057894H65.4593048L65.4593048,17.3064156z M69.5172348,12.929822h2.971199
			l-1.4784393-3.5798836L69.5172348,12.929822L69.5172348,12.929822z M59.1919937,15.3352766v-2.5215549h2.6810532
			c1.0291367,0,1.6232834,0.4346504,1.6232834,1.2318077V14.06007c0,0.8262386-0.6667366,1.2752066-1.6375999,1.2752066H59.1919937z
			"/>
	</g>
	<path fill-rule="evenodd" clip-rule="evenodd" fill="#00498A" d="M21.1341171,21.2996979c-6.1607189,0-12.3216619,0-18.4823799,0
		C2.6510653,15.1387558,2.6514008,8.9780359,2.6514008,2.8169813h0.0003357c6.1607189,0,12.3216619,0,18.4823799,0l0,0
		C21.1341171,8.9780359,21.1344528,15.1387558,21.1341171,21.2996979L21.1341171,21.2996979z M4.7711892,19.1799107
		c4.7479367,0,9.4955387,0,14.243475,0c0-4.7479382,0-9.495204,0-14.2434769c-4.7479362,0-9.4955378,0-14.243475,0
		C4.7711892,9.6847067,4.7711892,14.4319725,4.7711892,19.1799107z"/>
	<polygon fill-rule="evenodd" clip-rule="evenodd" fill="#00498A" points="10.9427576,6.7772679 16.1963711,12.0312157 
		10.9427576,17.2848282 7.9471807,17.2848282 13.2007933,12.0312157 7.9468455,6.7772679 	"/>
</g>
</svg>
