<svg xmlns="http://www.w3.org/2000/svg" width="58" height="58" fill="none"><g clip-path="url(#a)"><path fill="#37AEE2" d="M49 0H9C4.195 0 0 4.195 0 9v40c0 4.805 4.195 9 9 9h40c4.805 0 9-4.195 9-9V9c0-4.805-4.195-9-9-9Z"/><path fill="#C8DAEA" d="M22 46c-1.257 0-.657-.86-1-2l-4-12 28-16"/><path fill="#A9C9DD" d="M23 46c.803 0 1.426-.53 2-1l5-5-6-4"/><path fill="#F6FBFE" d="m23 35 15 13c1.574 1.019 3.55.038 4-2l6-30c.562-2.49-1.314-3.793-3-3L9 27c-2.36.906-2.911 2.434-1 3l10 3 21-14c1.012-.566 2.675.207 2 1"/></g><defs><clipPath id="a"><path fill="#fff" d="M0 0h58v58H0z"/></clipPath></defs></svg>